<svg version="1.2" xmlns="http://www.w3.org/2000/svg" viewBox="0 0 64 64" width="320" height="320">
	<title>python-svg-svg</title>
	<defs>
		<linearGradient id="g1" x2="1" gradientUnits="userSpaceOnUse" gradientTransform="matrix(15.823,15.876,-25.403,25.318,19.075,18.782)">
			<stop offset="0" stop-color="#b08eff"/>
			<stop offset="1" stop-color="#986cfe"/>
		</linearGradient>
		<linearGradient id="g2" x2="1" gradientUnits="userSpaceOnUse" gradientTransform="matrix(16.994,16.281,-25.989,27.127,28.809,28.882)">
			<stop offset="0" stop-color="#986cfe"/>
			<stop offset="1" stop-color="#b08eff"/>
		</linearGradient>
	</defs>
	<style>
		.s0 { fill: url(#g1) } 
		.s1 { fill: url(#g2) } 
	</style>
	<path id="Layer" fill-rule="evenodd" class="s0" d="m39.7 20.2v7.1c0 4.2-4.3 4.1-4.3 4.1h-7.7c-4.6 0-4.5 4.6-4.5 4.6v3.8h-2.7c0 0-4.5 0.3-4.5-7.9 0-8.2 5.2-7.6 5.2-7.6h10.8v-1.1h-7.7v-3.7c0 0-0.5-3.5 7.6-3.5 8.5 0 7.8 4.2 7.8 4.2zm-13.5-0.4q0 0.3 0.1 0.6 0.1 0.2 0.3 0.4 0.2 0.2 0.5 0.3 0.2 0.1 0.5 0.1c0.8 0 1.4-0.6 1.4-1.4 0-0.7-0.6-1.3-1.4-1.3-0.8 0-1.4 0.6-1.4 1.3z"/>
	<path id="Layer" fill-rule="evenodd" class="s1" d="m24.3 43.6v-7c0-4.3 4.3-4.2 4.3-4.2h7.7c4.6 0 4.5-4.5 4.5-4.5v-3.8h2.7c0 0 4.5-0.3 4.5 7.9 0 8.2-5.2 7.6-5.2 7.6h-10.8v1.1h7.7v3.6c0 0 0.5 3.5-7.6 3.5-8.5 0-7.8-4.2-7.8-4.2zm13.5 0.4c0-0.8-0.6-1.4-1.4-1.4-0.8 0-1.4 0.6-1.4 1.4q0 0.3 0.1 0.5 0.1 0.3 0.3 0.5 0.2 0.2 0.5 0.3 0.2 0.1 0.5 0.1c0.8 0 1.4-0.6 1.4-1.4z"/>
</svg>